# xmcd
#
# Track frame offsets:
#	150
#	18855
#	45073
#	58675
#	69745
#	85358
#	101005
#	115703
#	140205
#	149393
#	166380
#	172568
#	180793
#	186855
#	197020
#	216903
#	233070
#	251010
#	266358
#	281575
#	300953
#	320583
#
# Disc length: 4450 seconds
#
# Revision: 0
# Processed by: cddbd v1.4PL0 Copyright (c) Steve Scherf et al.
# Submitted via: EasyCDDAExtractor 4.5.0.2
#
DISCID=2b116016
DTITLE=Various Artist - Seychelles - Musiques oubliées "des Iles"
DYEAR=1989
DGENRE=Ethnic
TTITLE0=Moi Wilson
TTITLE1=Pardon mon mari pas battre moi comme ça
TTITLE2=Faida
TTITLE3=Rosalie content capitaine
TTITLE4=Dodo baba
TTITLE5=Clémentine
TTITLE6=Lulu lumulaka
TTITLE7=Mutia
TTITLE8=Mon moulin pas moulin à coprah (mutia)
TTITLE9=La brouette finie tomber (mutia)
TTITLE10=Nambat la sizani (tsinge)
TTITLE11=O silhouette (tsinge)
TTITLE12=Alitoto (chant de piroguiers)
TTITLE13=Dzindzin kokolo (chant de piroguiers)
TTITLE14=Sokwe
TTITLE15=Valse
TTITLE16=Kotis (scottish)
TTITLE17=Polka
TTITLE18=Mazok (mazurka)
TTITLE19=Contredanse avant-quatre
TTITLE20=Contredanse avant-deux
TTITLE21=Romance (vous avez la beauté qui grise)
EXTD=
EXTT0=
EXTT1=
EXTT2=
EXTT3=
EXTT4=
EXTT5=
EXTT6=
EXTT7=
EXTT8=
EXTT9=
EXTT10=
EXTT11=
EXTT12=
EXTT13=
EXTT14=
EXTT15=
EXTT16=
EXTT17=
EXTT18=
EXTT19=
EXTT20=
EXTT21=
PLAYORDER=
